<?xml version="1.0" encoding="UTF-8" standalone="no"?>
<!DOCTYPE svg PUBLIC "-//W3C//DTD SVG 1.1//EN"
 "http://www.w3.org/Graphics/SVG/1.1/DTD/svg11.dtd">
<!-- Generated by graphviz version 2.38.0 (20140413.2041)
 -->
<!-- Title: G Pages: 1 -->
<svg width="283pt" height="229pt"
 viewBox="0.00 0.00 283.00 229.00" xmlns="http://www.w3.org/2000/svg" xmlns:xlink="http://www.w3.org/1999/xlink">
<g id="graph0" class="graph" transform="scale(1 1) rotate(0) translate(4 225)">
<title>G</title>
<polygon fill="white" stroke="none" points="-4,4 -4,-225 279,-225 279,4 -4,4"/>
<!-- n2 -->
<g id="node1" class="node"><title>n2</title>
<polygon fill="#ffffff" stroke="black" points="0,-0.5 0,-99.5 114,-99.5 114,-0.5 0,-0.5"/>
<text text-anchor="middle" x="57" y="-84.3" font-family="Times,serif" font-size="14.00">MotorIO</text>
<polyline fill="none" stroke="black" points="0,-76.5 114,-76.5 "/>
<text text-anchor="middle" x="57" y="-61.3" font-family="Times,serif" font-size="14.00"> </text>
<polyline fill="none" stroke="black" points="0,-53.5 114,-53.5 "/>
<text text-anchor="start" x="8" y="-38.3" font-family="Times,serif" font-size="14.00">+ move()</text>
<text text-anchor="start" x="8" y="-23.3" font-family="Times,serif" font-size="14.00">+ setMotorPin()</text>
<text text-anchor="start" x="8" y="-8.3" font-family="Times,serif" font-size="14.00">+ stop()</text>
</g>
<!-- n3 -->
<g id="node2" class="node"><title>n3</title>
<polygon fill="#ffffff" stroke="black" points="171,-136.5 171,-220.5 275,-220.5 275,-136.5 171,-136.5"/>
<text text-anchor="middle" x="223" y="-205.3" font-family="Times,serif" font-size="14.00">Radio</text>
<polyline fill="none" stroke="black" points="171,-197.5 275,-197.5 "/>
<text text-anchor="middle" x="223" y="-182.3" font-family="Times,serif" font-size="14.00"> </text>
<polyline fill="none" stroke="black" points="171,-174.5 275,-174.5 "/>
<text text-anchor="start" x="179" y="-159.3" font-family="Times,serif" font-size="14.00">+ fetchOrder()</text>
<text text-anchor="start" x="179" y="-144.3" font-family="Times,serif" font-size="14.00">+ wakeup()</text>
</g>
<!-- n4 -->
<g id="node3" class="node"><title>n4</title>
<polygon fill="#ffffff" stroke="black" points="132,-8 132,-92 244,-92 244,-8 132,-8"/>
<text text-anchor="middle" x="188" y="-76.8" font-family="Times,serif" font-size="14.00">ServoIO</text>
<polyline fill="none" stroke="black" points="132,-69 244,-69 "/>
<text text-anchor="middle" x="188" y="-53.8" font-family="Times,serif" font-size="14.00"> </text>
<polyline fill="none" stroke="black" points="132,-46 244,-46 "/>
<text text-anchor="start" x="140" y="-30.8" font-family="Times,serif" font-size="14.00">+ rotateAngle()</text>
<text text-anchor="start" x="140" y="-15.8" font-family="Times,serif" font-size="14.00">+ setServoPin()</text>
</g>
<!-- n1 -->
<g id="node4" class="node"><title>n1</title>
<polygon fill="#ffffff" stroke="black" points="91,-144 91,-213 153,-213 153,-144 91,-144"/>
<text text-anchor="middle" x="122" y="-197.8" font-family="Times,serif" font-size="14.00">Control</text>
<polyline fill="none" stroke="black" points="91,-190 153,-190 "/>
<text text-anchor="middle" x="122" y="-174.8" font-family="Times,serif" font-size="14.00"> </text>
<polyline fill="none" stroke="black" points="91,-167 153,-167 "/>
<text text-anchor="middle" x="122" y="-151.8" font-family="Times,serif" font-size="14.00"> </text>
</g>
<!-- n1&#45;&gt;n2 -->
<g id="edge2" class="edge"><title>n1&#45;&gt;n2</title>
<path fill="none" stroke="black" d="M104.752,-143.932C99.2372,-133.2 92.9649,-120.993 86.8211,-109.036"/>
<polygon fill="none" stroke="black" points="89.8461,-107.265 82.1627,-99.9704 83.6199,-110.465 89.8461,-107.265"/>
</g>
<!-- n1&#45;&gt;n4 -->
<g id="edge1" class="edge"><title>n1&#45;&gt;n4</title>
<path fill="none" stroke="black" d="M139.514,-143.932C146.28,-130.963 154.17,-115.84 161.596,-101.608"/>
<polygon fill="none" stroke="black" points="164.869,-102.9 166.392,-92.4154 158.663,-99.6622 164.869,-102.9"/>
</g>
</g>
</svg>
